<svg width="0" height="0" class="hidden">
	<symbol version="1.1" id="brush-1" xmlns="http://www.w3.org/2000/svg" xmlns:xlink="http://www.w3.org/1999/xlink" xml:space="preserve" viewBox="0 0 512 512"><g><path d="M229.806,376.797l-58.165-40.976l-1.128-0.112c-26.889-2.741-53.247,9.248-68.79,31.31
		c-14.743,20.928-20.101,43.743-25.282,65.812c-3.528,15.064-7.181,30.64-13.805,45.613c-5.483,12.382-9.156,16.802-9.169,16.822
		l-3.784,4.283l5.148,2.479c23.958,11.542,56.31,13.143,88.766,4.394c34.09-9.182,62.639-28.109,80.372-53.28
		c15.543-22.062,17.963-50.919,6.322-75.316L229.806,376.797z M208.721,442.4c-4.171,5.915-9.148,11.483-14.795,16.605
		c-0.892,0.597-1.81,1.259-2.774,2.007c-10.657,8.382-24.548,4.775-16.101-12.224c8.447-17.012-6.44-22.456-18.534-11.286
		c-15.175,14.022-22.298,2.826-19.491-4.913c2.8-7.738,12.881-18.291,4.446-25.111c-5.076-4.112-11.628,1.895-22.082,10.041
		c-5.988,4.662-19.773,3.148-14.186-17.55c3.023-7.693,6.768-15.11,11.766-22.206c10.847-15.412,29.244-24.462,48.105-23.741
		l49.81,35.087C221.923,406.631,219.575,426.988,208.721,442.4z"></path><path d="M191.519,277.032c-6.238,7.943-8.939,18.095-7.484,28.09c1.47,9.994,6.972,18.946,15.229,24.764l26.83,18.9
		c8.257,5.817,18.547,7.988,28.45,6.007c9.903-1.993,18.554-7.962,23.938-16.5l24.357-38.734l-83.047-58.506L191.519,277.032z"></path><path d="M447.22,6.635l-0.204-0.138c-15.484-10.907-36.792-7.778-48.492,7.109L229.839,228.265l81.658,57.523
		L456.847,54.687C466.934,38.658,462.697,17.541,447.22,6.635z"></path></g></symbol>
	<symbol version="1.1" xmlns="http://www.w3.org/2000/svg" xmlns:xlink="http://www.w3.org/1999/xlink" xmlnsSketch="http://www.bohemiancoding.com/sketch/ns" viewBox="0 0 25 25" id="cross"><title>cross</title><desc>Created with Sketch Beta.</desc><defs></defs><g id="Page-1" stroke="none" stroke-width="1" fill="none" fill-rule="evenodd" sketchType="MSPage"><g id="Icon-Set" sketchType="MSLayerGroup" transform="translate(-467.000000, -1039.000000)" fill="#000000"><path d="M489.396,1061.4 C488.614,1062.18 487.347,1062.18 486.564,1061.4 L479.484,1054.32 L472.404,1061.4 C471.622,1062.18 470.354,1062.18 469.572,1061.4 C468.79,1060.61 468.79,1059.35 469.572,1058.56 L476.652,1051.48 L469.572,1044.4 C468.79,1043.62 468.79,1042.35 469.572,1041.57 C470.354,1040.79 471.622,1040.79 472.404,1041.57 L479.484,1048.65 L486.564,1041.57 C487.347,1040.79 488.614,1040.79 489.396,1041.57 C490.179,1042.35 490.179,1043.62 489.396,1044.4 L482.316,1051.48 L489.396,1058.56 C490.179,1059.35 490.179,1060.61 489.396,1061.4 L489.396,1061.4 Z M485.148,1051.48 L490.813,1045.82 C492.376,1044.26 492.376,1041.72 490.813,1040.16 C489.248,1038.59 486.712,1038.59 485.148,1040.16 L479.484,1045.82 L473.82,1040.16 C472.257,1038.59 469.721,1038.59 468.156,1040.16 C466.593,1041.72 466.593,1044.26 468.156,1045.82 L473.82,1051.48 L468.156,1057.15 C466.593,1058.71 466.593,1061.25 468.156,1062.81 C469.721,1064.38 472.257,1064.38 473.82,1062.81 L479.484,1057.15 L485.148,1062.81 C486.712,1064.38 489.248,1064.38 490.813,1062.81 C492.376,1061.25 492.376,1058.71 490.813,1057.15 L485.148,1051.48 L485.148,1051.48 Z" id="cross" sketchType="MSShapeGroup"></path></g></g></symbol><symbol fill="#000000" id="next" xmlns="http://www.w3.org/2000/svg" viewBox="0 0 512 512"><path d="M314.55,129.32a16.41,16.41,0,0,1,11.62,4.84L448,254.45,326.32,377.68a16.33,16.33,0,0,1-11.76,5A16.68,16.68,0,0,1,297.74,366V304.54s-21.35-10.67-57.45-10.67c-42.13,0-104.36,14.52-176.29,77.45,0,0,33.39-166.95,233.74-166.95V146.05a16.68,16.68,0,0,1,16.81-16.73m0-30h0A46.85,46.85,0,0,0,282.45,112a46.09,46.09,0,0,0-14.71,34.06v29.53c-38.47,3.17-73.51,12.56-104.46,28a240.94,240.94,0,0,0-81,65.48C44.79,316,35,363.44,34.58,365.44A30,30,0,0,0,83.76,393.9c66.15-57.89,121.63-70,156.53-70a137.81,137.81,0,0,1,27.45,2.67V366A46.12,46.12,0,0,0,282.46,400a46.92,46.92,0,0,0,32.1,12.65,46.21,46.21,0,0,0,33.1-13.92L469.35,275.53a30,30,0,0,0-.27-42.43L347.24,112.82a46.27,46.27,0,0,0-32.69-13.5Z"></path></symbol><symbol fill="none" xmlns="http://www.w3.org/2000/svg" viewBox="0 0 24 24" id="pause"><g id="Media / Pause_Circle"><path id="Vector" d="M14 9V15M10 9V15M12 21C7.02944 21 3 16.9706 3 12C3 7.02944 7.02944 3 12 3C16.9706 3 21 7.02944 21 12C21 16.9706 16.9706 21 12 21Z" stroke="#000000" stroke-width="2" stroke-linecap="round" stroke-linejoin="round"></path></g></symbol><symbol fill="#000000" version="1.1" xmlns="http://www.w3.org/2000/svg" viewBox="-5 0 32 32" id="pencil-1"><title>pencil</title><path d="M18.344 4.781l-3.406 3.063s1.125 0.688 2.156 1.656c1 0.969 1.719 2.063 1.719 2.063l2.906-3.469s-0.031-0.625-1.406-1.969c-1.406-1.344-1.969-1.344-1.969-1.344zM7.25 21.938l-0.156 1.5 10.813-11.25s-0.719-1-1.594-1.844c-0.906-0.875-1.938-1.563-1.938-1.563l-10.813 11.25 1.688-0.094 0.188 1.813zM0 26.719l2.688-5.5 1.5-0.125 0.125 1.719 1.813 0.25-0.188 1.375-5.438 2.75z"></path></symbol>
	<symbol fill="none" xmlns="http://www.w3.org/2000/svg" viewBox="0 0 24 24" id="play"><g id="Media / Play_Circle"><g id="Vector"><path d="M3 12C3 16.9706 7.02944 21 12 21C16.9706 21 21 16.9706 21 12C21 7.02944 16.9706 3 12 3C7.02944 3 3 7.02944 3 12Z" stroke="#000000" stroke-width="2" stroke-linecap="round" stroke-linejoin="round"></path><path d="M10 15V9L15 12L10 15Z" stroke="#000000" stroke-width="2" stroke-linecap="round" stroke-linejoin="round"></path></g></g></symbol><symbol fill="#000000" version="1.1" xmlns="http://www.w3.org/2000/svg" viewBox="0 0 32 32" id="random"><title>perspective-dice-random</title><path d="M15.676 17.312h0.048c-0.114-0.273-0.263-0.539-0.436-0.78l-11.114-6.346c-0.37 0.13-0.607 0.519-0.607 1.109v9.84c0 1.034 0.726 2.291 1.621 2.808l9.168 5.294c0.544 0.314 1.026 0.282 1.32-0.023v-11.902h-0zM10.049 24.234l-1.83-1.057v-1.918l1.83 1.057v1.918zM11.605 19.993c-0.132 0.2-0.357 0.369-0.674 0.505l-0.324 0.12c-0.23 0.090-0.38 0.183-0.451 0.278-0.071 0.092-0.106 0.219-0.106 0.38v0.242l-1.83-1.056v-0.264c0-0.294 0.056-0.523 0.167-0.685 0.111-0.165 0.346-0.321 0.705-0.466l0.324-0.125c0.193-0.076 0.333-0.171 0.421-0.285 0.091-0.113 0.137-0.251 0.137-0.417 0-0.251-0.081-0.494-0.243-0.728-0.162-0.237-0.389-0.44-0.679-0.608-0.274-0.158-0.569-0.268-0.887-0.329-0.318-0.065-0.649-0.078-0.994-0.040v-1.691c0.409 0.085 0.782 0.19 1.12 0.313s0.664 0.276 0.978 0.457c0.825 0.476 1.453 1.019 1.886 1.627 0.433 0.605 0.649 1.251 0.649 1.937 0 0.352-0.066 0.63-0.198 0.834zM27.111 8.247l-9.531-5.514c-0.895-0.518-2.346-0.518-3.241 0l-9.531 5.514c-0.763 0.442-0.875 1.117-0.336 1.628l10.578 6.040c0.583 0.146 1.25 0.145 1.832-0.003l10.589-6.060c0.512-0.508 0.392-1.17-0.36-1.605zM16.305 10.417l-0.23-0.129c-0.257-0.144-0.421-0.307-0.492-0.488-0.074-0.183-0.062-0.474 0.037-0.874l0.095-0.359c0.055-0.214 0.061-0.389 0.016-0.525-0.041-0.139-0.133-0.248-0.277-0.329-0.219-0.123-0.482-0.167-0.788-0.133-0.309 0.033-0.628 0.141-0.958 0.326-0.31 0.174-0.592 0.391-0.846 0.653-0.257 0.26-0.477 0.557-0.661 0.892l-1.476-0.827c0.332-0.333 0.658-0.625 0.978-0.875s0.659-0.474 1.015-0.674c0.934-0.524 1.803-0.835 2.607-0.934 0.8-0.101 1.5 0.016 2.098 0.352 0.307 0.172 0.508 0.368 0.603 0.589 0.092 0.219 0.097 0.507 0.016 0.865l-0.1 0.356c-0.066 0.255-0.080 0.438-0.041 0.55 0.035 0.11 0.124 0.205 0.265 0.284l0.212 0.118-2.074 1.162zM18.674 11.744l-1.673-0.937 2.074-1.162 1.673 0.937-2.074 1.162zM27.747 10.174l-11.060 6.329c-0.183 0.25-0.34 0.527-0.459 0.813v11.84c0.287 0.358 0.793 0.414 1.37 0.081l9.168-5.294c0.895-0.517 1.621-1.774 1.621-2.808v-9.84c0-0.608-0.251-1.003-0.641-1.121zM23.147 23.68l-1.83 1.056v-1.918l1.83-1.057v1.918zM24.703 17.643c-0.132 0.353-0.357 0.78-0.674 1.284l-0.324 0.494c-0.23 0.355-0.38 0.622-0.451 0.799-0.071 0.174-0.106 0.342-0.106 0.503v0.242l-1.83 1.056v-0.264c0-0.294 0.056-0.587 0.167-0.878 0.111-0.294 0.346-0.721 0.705-1.279l0.324-0.5c0.193-0.298 0.333-0.555 0.421-0.771 0.091-0.218 0.137-0.409 0.137-0.575 0-0.251-0.081-0.4-0.243-0.447-0.162-0.050-0.389 0.009-0.679 0.177-0.274 0.158-0.569 0.39-0.887 0.695-0.318 0.302-0.649 0.671-0.994 1.107v-1.692c0.409-0.387 0.782-0.714 1.12-0.981s0.664-0.491 0.978-0.673c0.825-0.476 1.453-0.659 1.886-0.55 0.433 0.106 0.649 0.502 0.649 1.188 0 0.352-0.066 0.706-0.198 1.062z"></path></symbol><symbol version="1.1" id="settings2" xmlns="http://www.w3.org/2000/svg" xmlns:xlink="http://www.w3.org/1999/xlink" xml:space="preserve" viewBox="0 0 512 512"><g><path d="M502.325,307.303l-39.006-30.805c-6.215-4.908-9.665-12.429-9.668-20.348c0-0.084,0-0.168,0-0.252
		c-0.014-7.936,3.44-15.478,9.667-20.396l39.007-30.806c8.933-7.055,12.093-19.185,7.737-29.701l-17.134-41.366
		c-4.356-10.516-15.167-16.86-26.472-15.532l-49.366,5.8c-7.881,0.926-15.656-1.966-21.258-7.586
		c-0.059-0.06-0.118-0.119-0.177-0.178c-5.597-5.602-8.476-13.36-7.552-21.225l5.799-49.363
		c1.328-11.305-5.015-22.116-15.531-26.472L337.004,1.939c-10.516-4.356-22.646-1.196-29.701,7.736l-30.805,39.005
		c-4.908,6.215-12.43,9.665-20.349,9.668c-0.084,0-0.168,0-0.252,0c-7.935,0.014-15.477-3.44-20.395-9.667L204.697,9.675
		c-7.055-8.933-19.185-12.092-29.702-7.736L133.63,19.072c-10.516,4.356-16.86,15.167-15.532,26.473l5.799,49.366
		c0.926,7.881-1.964,15.656-7.585,21.257c-0.059,0.059-0.118,0.118-0.178,0.178c-5.602,5.598-13.36,8.477-21.226,7.552
		l-49.363-5.799c-11.305-1.328-22.116,5.015-26.472,15.531L1.939,174.996c-4.356,10.516-1.196,22.646,7.736,29.701l39.006,30.805
		c6.215,4.908,9.665,12.429,9.668,20.348c0,0.084,0,0.167,0,0.251c0.014,7.935-3.44,15.477-9.667,20.395L9.675,307.303
		c-8.933,7.055-12.092,19.185-7.736,29.701l17.134,41.365c4.356,10.516,15.168,16.86,26.472,15.532l49.366-5.799
		c7.882-0.926,15.656,1.965,21.258,7.586c0.059,0.059,0.118,0.119,0.178,0.178c5.597,5.603,8.476,13.36,7.552,21.226l-5.799,49.364
		c-1.328,11.305,5.015,22.116,15.532,26.472l41.366,17.134c10.516,4.356,22.646,1.196,29.701-7.736l30.804-39.005
		c4.908-6.215,12.43-9.665,20.348-9.669c0.084,0,0.168,0,0.251,0c7.936-0.014,15.478,3.44,20.396,9.667l30.806,39.007
		c7.055,8.933,19.185,12.093,29.701,7.736l41.366-17.134c10.516-4.356,16.86-15.168,15.532-26.472l-5.8-49.366
		c-0.926-7.881,1.965-15.656,7.586-21.257c0.059-0.059,0.119-0.119,0.178-0.178c5.602-5.597,13.36-8.476,21.225-7.552l49.364,5.799
		c11.305,1.328,22.117-5.015,26.472-15.531l17.134-41.365C514.418,326.488,511.258,314.358,502.325,307.303z M281.292,329.698
		c-39.68,16.436-85.172-2.407-101.607-42.087c-16.436-39.68,2.407-85.171,42.087-101.608c39.68-16.436,85.172,2.407,101.608,42.088
		C339.815,267.771,320.972,313.262,281.292,329.698z"></path></g></symbol><symbol id="settings1" xmlns="http://www.w3.org/2000/svg" viewBox="0 0 24 24"><defs></defs><title>settings</title><g id="settings-Regular"><path id="settings-Regular-2" d="M12,15.75A3.75,3.75,0,1,1,15.75,12,3.754,3.754,0,0,1,12,15.75Zm0-6A2.25,2.25,0,1,0,14.25,12,2.252,2.252,0,0,0,12,9.75Zm.5,12h-1A2.252,2.252,0,0,1,9.25,19.5a.363.363,0,0,0-.22-.34l-.008,0a.33.33,0,0,0-.36.072,2.291,2.291,0,0,1-3.2.021l-.7-.706a2.251,2.251,0,0,1,0-3.187.366.366,0,0,0,.077-.393.337.337,0,0,0-.309-.214A2.258,2.258,0,0,1,2.25,12.5v-1A2.252,2.252,0,0,1,4.5,9.25a.36.36,0,0,0,.339-.22l0-.008a.332.332,0,0,0-.072-.36,2.25,2.25,0,0,1-.021-3.2l.709-.709a2.3,2.3,0,0,1,3.182,0,.366.366,0,0,0,.4.086.334.334,0,0,0,.212-.308A2.258,2.258,0,0,1,11.5,2.25h1A2.252,2.252,0,0,1,14.75,4.5a.342.342,0,0,0,.21.333h0a.362.362,0,0,0,.383-.063,2.241,2.241,0,0,1,1.6-.676h0a2.235,2.235,0,0,1,1.591.659l.706.705a2.25,2.25,0,0,1,0,3.182.343.343,0,0,0-.091.385l.006.014a.332.332,0,0,0,.307.21A2.258,2.258,0,0,1,21.75,11.5v1a2.252,2.252,0,0,1-2.25,2.25.342.342,0,0,0-.333.21v0a.365.365,0,0,0,.063.383,2.25,2.25,0,0,1,.017,3.2l-.7.706a2.3,2.3,0,0,1-3.182,0,.344.344,0,0,0-.385-.091.353.353,0,0,0-.224.313A2.258,2.258,0,0,1,12.5,21.75ZM9.691,17.818a1.867,1.867,0,0,1,1.059,1.654.757.757,0,0,0,.75.778h1a.75.75,0,0,0,.75-.75,1.871,1.871,0,0,1,1.155-1.729,1.824,1.824,0,0,1,1.993.4.755.755,0,0,0,1.082.021l.706-.7a.752.752,0,0,0,0-1.063,1.874,1.874,0,0,1-.413-2.01l0-.014.007-.017a1.821,1.821,0,0,1,1.691-1.13.756.756,0,0,0,.776-.75v-1a.75.75,0,0,0-.75-.75,1.838,1.838,0,0,1-1.719-1.13l0,0A1.836,1.836,0,0,1,18.168,7.6a.766.766,0,0,0,.241-.552.743.743,0,0,0-.22-.53l-.7-.706a.75.75,0,0,0-.531-.219h0a.74.74,0,0,0-.531.221,1.878,1.878,0,0,1-2.01.413l-.014,0-.017-.007a1.821,1.821,0,0,1-1.13-1.691.756.756,0,0,0-.75-.776h-1a.75.75,0,0,0-.75.75A1.838,1.838,0,0,1,9.608,6.224,1.861,1.861,0,0,1,7.6,5.832.757.757,0,0,0,6.52,5.811l-.709.709a.75.75,0,0,0,0,1.061A1.838,1.838,0,0,1,6.229,9.6a.932.932,0,0,1-.047.1A1.867,1.867,0,0,1,4.528,10.75a.757.757,0,0,0-.778.75v1a.75.75,0,0,0,.75.75,1.833,1.833,0,0,1,1.718,1.134l.006.013,0,.014a1.87,1.87,0,0,1-.4,2,.751.751,0,0,0-.015,1.075l.706.7a.768.768,0,0,0,1.061,0A1.839,1.839,0,0,1,9.6,17.771.932.932,0,0,1,9.691,17.818Z"></path></g></symbol><symbol fill="none" xmlns="http://www.w3.org/2000/svg" viewBox="0 0 24 24" id="settings4"><path d="M11 3H13C13.5523 3 14 3.44772 14 4V4.56879C14 4.99659 14.2871 5.36825 14.6822 5.53228C15.0775 5.69638 15.5377 5.63384 15.8403 5.33123L16.2426 4.92891C16.6331 4.53838 17.2663 4.53838 17.6568 4.92891L19.071 6.34312C19.4616 6.73365 19.4615 7.36681 19.071 7.75734L18.6688 8.1596C18.3661 8.46223 18.3036 8.92247 18.4677 9.31774C18.6317 9.71287 19.0034 10 19.4313 10L20 10C20.5523 10 21 10.4477 21 11V13C21 13.5523 20.5523 14 20 14H19.4312C19.0034 14 18.6318 14.2871 18.4677 14.6822C18.3036 15.0775 18.3661 15.5377 18.6688 15.8403L19.071 16.2426C19.4616 16.6331 19.4616 17.2663 19.071 17.6568L17.6568 19.071C17.2663 19.4616 16.6331 19.4616 16.2426 19.071L15.8403 18.6688C15.5377 18.3661 15.0775 18.3036 14.6822 18.4677C14.2871 18.6318 14 19.0034 14 19.4312V20C14 20.5523 13.5523 21 13 21H11C10.4477 21 10 20.5523 10 20V19.4313C10 19.0034 9.71287 18.6317 9.31774 18.4677C8.92247 18.3036 8.46223 18.3661 8.1596 18.6688L7.75732 19.071C7.36679 19.4616 6.73363 19.4616 6.34311 19.071L4.92889 17.6568C4.53837 17.2663 4.53837 16.6331 4.92889 16.2426L5.33123 15.8403C5.63384 15.5377 5.69638 15.0775 5.53228 14.6822C5.36825 14.2871 4.99659 14 4.56879 14H4C3.44772 14 3 13.5523 3 13V11C3 10.4477 3.44772 10 4 10L4.56877 10C4.99658 10 5.36825 9.71288 5.53229 9.31776C5.6964 8.9225 5.63386 8.46229 5.33123 8.15966L4.92891 7.75734C4.53838 7.36681 4.53838 6.73365 4.92891 6.34313L6.34312 4.92891C6.73365 4.53839 7.36681 4.53839 7.75734 4.92891L8.15966 5.33123C8.46228 5.63386 8.9225 5.6964 9.31776 5.53229C9.71288 5.36825 10 4.99658 10 4.56876V4C10 3.44772 10.4477 3 11 3Z" stroke="#000000" stroke-width="1.5"></path><path d="M14 12C14 13.1046 13.1046 14 12 14C10.8954 14 10 13.1046 10 12C10 10.8954 10.8954 10 12 10C13.1046 10 14 10.8954 14 12Z" stroke="#000000" stroke-width="1.5"></path></symbol></svg>